<svg xmlns="http://www.w3.org/2000/svg" viewBox="0 0 410 58" preserveAspectRatio="none"><path d="M1.632 27.576c3.923-.32 5.758-1.054 12.11-.892 34.09.864 67.254 1.153 104.477 1.778 56.104.95 113.959 1.054 173.564.233 24.588-.307 55.532.057 84.821-.044 8.014.029 25.158.81 29.837 1.527 4.805.714 3.41 2.13-2.175 2.58a922.964 922.964 0 01-50.722 2.74 4062.719 4062.719 0 01-120.233 1.39c-40.296-.142-80.787-.924-121.421-2.283-32.127-1.083-66.137-2.958-99.297-5.054L1.632 27.576z" fill="#65E2CA" fill-rule="evenodd"/></svg>